<svg xmlns="http://www.w3.org/2000/svg" width="24" height="24" viewBox="0 0 24 24" fill="none">
    <path fill-rule="evenodd" clip-rule="evenodd" d="M11.5649 0.00252336C11.4429 0.0155955 11.2214 0.0639544 11.0912 0.10595C10.7463 0.217175 10.3852 0.42107 9.93903 0.756612C8.63379 1.73811 7.84166 3.16466 7.51387 5.12413C7.46815 5.39744 7.42104 5.73243 7.42745 5.73885C7.43462 5.746 7.56785 5.5547 7.62494 5.45524C7.70206 5.32093 7.78106 5.15944 7.91746 4.85717C8.28926 4.03319 8.46053 3.72866 8.95548 3.01144C9.33634 2.45962 9.58435 2.14697 9.86153 1.86933C10.2883 1.44182 10.687 1.20142 11.1636 1.08412C11.3927 1.02775 11.5103 1.01441 11.7761 1.0146C12.5447 1.01514 13.1973 1.28765 13.748 1.83801C14.4286 2.51807 14.8925 3.51384 15.3201 5.21199C15.6295 6.44068 15.8138 7.67594 15.904 9.12345C15.9627 10.066 15.978 10.9534 15.9599 12.366C15.952 12.984 15.9499 13.4939 15.9552 13.4992C15.9685 13.5122 16.056 13.4127 16.1293 13.3011C16.1959 13.1997 16.2567 13.0459 16.288 12.8992C16.3285 12.7092 16.3692 11.8714 16.3805 10.9928C16.4114 8.58441 16.1382 6.30246 15.5831 4.33494C15.4894 4.00259 15.253 3.29719 15.1606 3.07379C15.0707 2.85667 14.8673 2.44214 14.7504 2.23765C14.3295 1.50198 13.8475 0.931417 13.3315 0.558145C12.9687 0.29566 12.5801 0.116297 12.2054 0.0384246C12.086 0.0136127 12.0024 0.00535401 11.8337 0.00171813C11.714 -0.000855926 11.593 -0.000497499 11.5649 0.00252336ZM13.4916 0.0364284C13.4916 0.0395125 13.5334 0.0780897 13.5844 0.122146C14.9023 1.25973 15.8425 2.87585 16.3705 4.91109C16.6852 6.12401 16.86 7.44435 16.9232 9.08505C16.9513 9.81469 16.939 11.2118 16.8959 12.1814C16.8883 12.3528 16.8842 12.4952 16.8869 12.4978C16.8954 12.5063 17.0075 12.2071 17.0862 11.9658C17.2925 11.3327 17.4174 10.6567 17.4882 9.78924C17.5103 9.51925 17.5103 8.4222 17.4883 8.11839C17.4217 7.19921 17.2913 6.38036 17.0764 5.53206C16.465 3.1185 15.3364 1.21963 13.9716 0.308413C13.8153 0.204038 13.4916 0.0206153 13.4916 0.0364284ZM8.5116 6.62765C6.1277 6.70748 3.63528 7.45258 1.94415 8.59094C1.53948 8.86335 1.25028 9.09992 0.92575 9.42403C0.675598 9.67383 0.480036 9.90854 0.312072 10.1605C0.202973 10.3242 0.0286369 10.6305 0.0388009 10.6407C0.0419113 10.6438 0.0815857 10.6019 0.126967 10.5477C0.259251 10.3895 0.680719 9.96594 0.872275 9.79861C2.36405 8.49552 4.34522 7.70756 6.96254 7.37638C8.3759 7.19753 9.96545 7.15094 12.0066 7.22853C12.1861 7.23535 12.3733 7.24376 12.4226 7.24723C12.5114 7.25349 12.5119 7.25336 12.4738 7.23247C12.4148 7.20009 12.0856 7.08143 11.8765 7.01719C11.1204 6.78486 10.32 6.66083 9.35727 6.62685C8.97413 6.6133 8.93947 6.61332 8.5116 6.62765ZM18.2539 7.48853C18.2539 7.49071 18.2899 7.51886 18.3339 7.55111C18.4801 7.65822 18.7171 7.78373 19.1246 7.96988C19.908 8.3277 20.207 8.49007 20.7247 8.83857C21.7865 9.55332 22.246 9.95672 22.5808 10.4678C22.9762 11.0716 23.0842 11.8073 22.8884 12.5635C22.6399 13.5228 21.8515 14.2836 20.5442 14.8254C19.673 15.1865 18.2395 15.5541 16.9453 15.7483C16.0915 15.8765 15.3324 15.9458 14.1701 16.0018C13.8075 16.0193 10.6199 16.0234 10.53 16.0066C10.491 15.9993 10.4847 16.0011 10.4911 16.0178C10.5055 16.0553 10.6684 16.1787 10.7775 16.2349C10.9776 16.3377 11.1022 16.3636 11.5201 16.3891C12.6596 16.4587 13.9738 16.4586 15.0854 16.3888C16.9191 16.2737 18.588 15.9823 20.0756 15.5174C20.7435 15.3087 21.1853 15.1263 21.6619 14.8624C22.6873 14.2947 23.3582 13.6572 23.7336 12.8941C24.0079 12.336 24.0677 11.8323 23.9254 11.2744C23.7667 10.6528 23.1457 9.75364 22.4583 9.15041C21.461 8.27513 20.2407 7.76653 18.5548 7.52346C18.2875 7.48492 18.2539 7.48102 18.2539 7.48853ZM9.79178 7.76204C7.67633 7.83878 5.92601 8.0945 4.2871 8.56629C3.59731 8.76486 3.11827 8.94024 2.68027 9.15458C1.73733 9.61608 1.01941 10.1724 0.572441 10.7879C-0.0707973 11.6738 -0.171537 12.5476 0.268174 13.4271C0.378809 13.6485 0.542983 13.9053 0.753922 14.1872C1.70893 15.4635 3.08508 16.2477 4.97743 16.5941C5.25763 16.6454 5.68601 16.7069 5.71771 16.7004C5.73302 16.6972 5.70895 16.674 5.64031 16.6258C5.47994 16.5133 5.28334 16.4096 4.89794 16.2345C4.41211 16.0138 3.95208 15.7825 3.70925 15.6367C3.51382 15.5194 3.01927 15.1868 2.69947 14.9576C1.56857 14.1472 1.09658 13.4705 1.02091 12.551C0.990951 12.1869 1.05364 11.742 1.18428 11.3914C1.4167 10.7677 1.86737 10.2556 2.57784 9.80792C2.90599 9.60121 3.51031 9.32729 3.99888 9.16387C4.75459 8.91106 5.77781 8.6581 6.64361 8.50999C7.66195 8.3358 8.65649 8.23953 9.98383 8.18664C10.4273 8.16897 11.9921 8.16493 12.9091 8.17908L13.5236 8.18855L13.437 8.10668C13.2995 7.97659 13.0854 7.87695 12.8578 7.83709C12.7446 7.81729 12.2268 7.7858 11.6929 7.76628C11.3914 7.75527 10.0606 7.75231 9.79178 7.76204ZM8.06165 10.5543C7.92622 10.695 7.8379 10.8757 7.7892 11.1117C7.71775 11.4581 7.67323 13.4857 7.71602 14.4433C7.81934 16.7547 8.15059 18.7042 8.72976 20.4097C8.98272 21.1546 9.30005 21.7827 9.72281 22.3752C10.3809 23.2973 11.1828 23.8611 12.009 23.9829C12.2144 24.0132 12.5316 24.0022 12.7435 23.9576C13.1172 23.8789 13.4606 23.7169 13.9204 23.4025C14.4874 23.0146 15.0181 22.4896 15.4024 21.9362C16.0133 21.0566 16.4177 19.9387 16.6079 18.6045C16.626 18.4777 16.6438 18.3481 16.6475 18.3164L16.6542 18.2587L16.6147 18.3036C16.5136 18.4182 16.342 18.7389 16.1306 19.2082C15.7539 20.0445 15.5351 20.4177 14.9015 21.3045C14.5838 21.7493 14.2106 22.1683 13.9332 22.3918C13.3226 22.8837 12.6638 23.0662 11.8922 22.9574C11.152 22.8529 10.5094 22.4541 10.0011 21.7834C9.49008 21.1092 9.11551 20.2053 8.76079 18.7901C8.37324 17.244 8.19041 15.7996 8.12626 13.7775C8.11102 13.2976 8.1186 10.5572 8.13526 10.5138C8.14942 10.4769 8.12107 10.4925 8.06165 10.5543ZM7.15502 11.5783C6.8412 12.3804 6.67135 13.1807 6.58906 14.2448C6.56762 14.5218 6.56753 15.5487 6.58889 15.8389C6.62918 16.3864 6.67846 16.8162 6.7525 17.2665C7.04686 19.0564 7.66709 20.7394 8.4954 21.9959C8.9771 22.7266 9.52075 23.2979 10.1054 23.6875C10.2795 23.8035 10.5698 23.9699 10.5802 23.9594C10.583 23.9567 10.5238 23.9004 10.4486 23.8342C9.1291 22.6755 8.21023 21.0665 7.68706 18.9989C7.212 17.1214 7.05509 14.9085 7.18126 11.8659C7.18925 11.6736 7.19309 11.5136 7.18985 11.5103C7.18658 11.5071 7.17091 11.5376 7.15502 11.5783ZM23.8421 13.6778C23.6952 13.8495 23.3468 14.2004 23.1568 14.368C21.5334 15.7999 19.3208 16.6176 16.3208 16.8946C16.012 16.9231 15.6187 16.9503 15.1622 16.9748C14.7548 16.9965 12.7535 16.9967 12.2434 16.9749C12.0392 16.9662 11.7857 16.956 11.6801 16.9522L11.4881 16.9453L11.5969 16.9914C12.039 17.1787 12.799 17.3743 13.434 17.4641C14.0038 17.5447 14.3505 17.5668 15.0406 17.5666C15.606 17.5664 15.8014 17.5582 16.2696 17.5151C18.4337 17.3158 20.5994 16.5953 22.0881 15.5793C22.486 15.3078 22.7517 15.0884 23.0745 14.7647C23.3433 14.4952 23.5192 14.2839 23.6907 14.0246C23.7998 13.8597 23.9717 13.5572 23.9621 13.5477C23.9594 13.5451 23.9054 13.6037 23.8421 13.6778Z" fill="#FFD300"/>
</svg>